<svg xmlns="http://www.w3.org/2000/svg" xmlns:xlink="http://www.w3.org/1999/xlink" width="100%" height="100%" version="1.1" viewBox="0 0 26 26" xml:space="preserve" style="fill-rule:evenodd;clip-rule:evenodd;stroke-linejoin:round;stroke-miterlimit:1.41421"><path id="pin" d="M21.467,6.356c-2.395,-4.711 -8.201,-6.617 -12.966,-4.248c-4.765,2.369 -6.614,8.316 -4.297,12.822c1.094,2.137 5.651,7.698 7.656,10.144c0.494,0.618 1.432,0.618 1.952,0c2.005,-2.446 6.51,-8.007 7.681,-10.144c1.459,-2.627 1.407,-5.768 -0.026,-8.574Zm-8.618,9.295c-2.786,0 -5.025,-2.24 -5.025,-4.97c0,-2.754 2.239,-4.969 5.025,-4.969c2.786,0 5.025,2.24 5.025,4.969c0.026,2.73 -2.239,4.97 -5.025,4.97Z" style="fill:#307d99;fill-rule:nonzero"/></svg>